<?xml version="1.0" encoding="UTF-8" standalone="no"?>
<svg
   xmlns:dc="http://purl.org/dc/elements/1.1/"
   xmlns:cc="http://creativecommons.org/ns#"
   xmlns:rdf="http://www.w3.org/1999/02/22-rdf-syntax-ns#"
   xmlns:svg="http://www.w3.org/2000/svg"
   xmlns="http://www.w3.org/2000/svg"
   xmlns:sodipodi="http://sodipodi.sourceforge.net/DTD/sodipodi-0.dtd"
   xmlns:inkscape="http://www.inkscape.org/namespaces/inkscape"
   version="1.0"
   width="1280.000000pt"
   height="1280.000000pt"
   viewBox="0 0 1280.000000 1280.000000"
   preserveAspectRatio="xMidYMid meet"
   id="svg4963"
   sodipodi:docname="smartNIRS.svg"
   inkscape:version="0.92.2 5c3e80d, 2017-08-06">
  <metadata
     id="metadata4969">
    <rdf:RDF>
      <cc:Work
         rdf:about="">
        <dc:format>image/svg+xml</dc:format>
        <dc:type
           rdf:resource="http://purl.org/dc/dcmitype/StillImage" />
        <dc:title />
      </cc:Work>
    </rdf:RDF>
  </metadata>
  <defs
     id="defs4967" />
  <sodipodi:namedview
     pagecolor="#ffffff"
     bordercolor="#666666"
     borderopacity="1"
     objecttolerance="10"
     gridtolerance="10"
     guidetolerance="10"
     inkscape:pageopacity="0"
     inkscape:pageshadow="2"
     inkscape:window-width="1920"
     inkscape:window-height="970"
     id="namedview4965"
     showgrid="false"
     inkscape:zoom="2.9593827"
     inkscape:cx="534.25323"
     inkscape:cy="698.14158"
     inkscape:window-x="0"
     inkscape:window-y="1"
     inkscape:window-maximized="1"
     inkscape:current-layer="svg4963" />
  <g
     id="g5012"
     inkscape:export-xdpi="96"
     inkscape:export-ydpi="96">
    <g
       style="fill:#000000;fill-opacity:1;stroke:none"
       id="g4961"
       transform="matrix(0.00751389,0,0,-0.00751389,444.09338,809.49563)">
      <path
         inkscape:connector-curvature="0"
         style="fill:#000000;fill-opacity:1"
         id="path4955"
         d="m 6070,12749 c -673,-30 -1313,-255 -1875,-658 -521,-374 -961,-929 -1202,-1515 -306,-744 -361,-1547 -158,-2321 64,-244 183,-555 282,-735 20,-36 92,-177 161,-315 548,-1100 894,-2017 1041,-2760 39,-196 59,-359 71,-580 17,-294 44,-519 74,-608 86,-256 217,-401 421,-464 57,-17 125,-18 1360,-18 1234,0 1303,1 1360,18 135,42 240,123 320,247 44,68 94,183 114,260 15,62 61,508 61,600 0,41 7,136 16,210 95,825 527,2002 1222,3335 220,422 345,818 408,1290 22,168 26,687 6,845 -106,840 -440,1541 -1011,2123 -704,717 -1659,1091 -2671,1046 z m 415,-359 c 421,-35 790,-137 1155,-320 925,-463 1562,-1324 1736,-2348 72,-427 51,-926 -56,-1353 -75,-297 -160,-507 -365,-899 C 8356,6321 7926,5168 7796,4360 c -28,-169 -41,-300 -51,-485 -10,-192 -43,-489 -61,-542 -20,-60 -55,-121 -86,-150 -56,-53 -56,-53 -633,-53 h -535 v 293 c 0,160 -2,398 -5,527 -3,129 -7,429 -10,665 -5,427 -14,697 -36,1059 -12,198 -2,321 27,351 7,7 48,32 91,55 117,64 355,224 463,311 52,42 167,150 255,240 462,471 754,930 830,1299 25,121 17,280 -19,373 -62,164 -176,274 -358,346 -402,159 -776,-83 -1069,-694 -113,-236 -227,-552 -320,-888 -24,-86 -46,-152 -50,-145 -3,7 -10,31 -13,53 -35,202 -98,426 -167,591 -222,533 -485,815 -784,841 -214,18 -424,-132 -526,-376 -164,-393 -87,-896 199,-1301 83,-117 258,-294 374,-378 231,-168 520,-333 635,-362 48,-13 52,-16 57,-49 8,-54 34,-492 46,-781 9,-210 28,-1468 30,-1912 v -118 h -547 c -616,0 -597,-2 -661,76 -83,100 -98,190 -142,832 -56,805 -463,1983 -1178,3402 -259,514 -321,668 -397,985 -66,274 -78,392 -79,755 -1,266 2,347 17,444 56,369 143,654 296,971 394,816 1116,1429 1976,1679 358,104 762,146 1120,116 z M 7581,8298 c 90,-49 121,-95 127,-190 16,-251 -228,-673 -666,-1152 -161,-175 -276,-278 -425,-378 -111,-74 -117,-77 -111,-51 26,118 122,478 163,613 198,652 420,1057 643,1170 57,29 70,31 134,27 58,-3 84,-10 135,-39 z M 5311,8029 c 201,-102 443,-558 549,-1032 45,-203 109,-612 97,-624 -17,-17 -391,222 -518,330 -189,163 -323,370 -394,612 -49,164 -46,411 6,549 59,160 154,220 260,165 z" />
      <path
         inkscape:connector-curvature="0"
         style="fill:#000000;fill-opacity:1"
         id="path4957"
         d="m 4933,2646 c -134,-43 -219,-159 -217,-301 1,-121 66,-223 177,-276 l 58,-27 -53,-24 c -77,-36 -113,-71 -150,-145 -43,-88 -45,-180 -6,-263 38,-82 138,-170 193,-170 29,0 15,-17 -24,-29 -57,-17 -143,-99 -172,-163 -33,-76 -32,-174 2,-248 35,-76 77,-121 146,-156 l 58,-29 h 1295 1295 l 53,24 c 69,31 145,114 167,182 51,152 -26,326 -171,386 -43,17 -57,33 -31,33 21,0 90,41 125,73 18,18 46,58 62,91 77,154 4,347 -159,419 -54,23 -54,24 -25,30 46,9 124,68 161,121 42,61 56,114 51,196 -6,112 -66,202 -171,258 l -52,27 -1285,2 c -1037,1 -1293,-1 -1327,-11 z m 2297,-418 c 67,-34 93,-79 88,-153 -4,-71 -30,-114 -82,-139 -31,-14 -129,-16 -999,-16 h -964 l -34,23 c -50,33 -83,105 -74,163 7,51 52,109 100,130 24,11 217,13 975,14 h 946 z m -475,-687 c 48,-22 69,-44 90,-96 35,-81 -17,-187 -103,-213 -29,-9 -226,-12 -723,-12 -644,0 -686,2 -725,19 -104,47 -132,177 -56,262 53,59 43,58 792,58 644,1 687,-1 725,-18 z" />
      <path
         inkscape:connector-curvature="0"
         style="fill:#000000;fill-opacity:1"
         id="path4959"
         d="m 5270,694 c 0,-4 26,-38 58,-77 163,-200 441,-359 712,-408 108,-19 326,-17 430,5 162,34 302,91 445,184 70,46 272,237 294,280 l 12,22 h -976 c -536,0 -975,-3 -975,-6 z" />
    </g>
    <text
       id="text4973"
       y="799.47235"
       x="302.75784"
       style="font-style:normal;font-variant:normal;font-weight:normal;font-stretch:normal;font-size:60px;line-height:125%;font-family:'Century Gothic';-inkscape-font-specification:'Century Gothic, Normal';font-variant-ligatures:normal;font-variant-caps:normal;font-variant-numeric:normal;font-feature-settings:normal;text-align:start;letter-spacing:0px;word-spacing:0px;writing-mode:lr-tb;text-anchor:start;fill:#000000;fill-opacity:1;stroke:none;stroke-width:2.33504415px;stroke-linecap:butt;stroke-linejoin:miter;stroke-opacity:1"
       xml:space="preserve"><tspan
         style="font-style:normal;font-variant:normal;font-weight:normal;font-stretch:normal;font-size:60px;font-family:'Century Gothic';-inkscape-font-specification:'Century Gothic, Normal';font-variant-ligatures:normal;font-variant-caps:normal;font-variant-numeric:normal;font-feature-settings:normal;text-align:start;writing-mode:lr-tb;text-anchor:start;stroke-width:2.33504415px"
         y="799.47235"
         x="302.75784"
         id="tspan4971"
         sodipodi:role="line">Smart</tspan></text>
    <text
       id="text4977"
       y="799.47235"
       x="515.73615"
       style="font-style:normal;font-variant:normal;font-weight:bold;font-stretch:normal;font-size:60px;line-height:125%;font-family:'Century Gothic';-inkscape-font-specification:'Century Gothic, Bold';font-variant-ligatures:normal;font-variant-caps:normal;font-variant-numeric:normal;font-feature-settings:normal;text-align:start;letter-spacing:0px;word-spacing:0px;writing-mode:lr-tb;text-anchor:start;fill:#000000;fill-opacity:1;stroke:none;stroke-width:2.33504391px;stroke-linecap:butt;stroke-linejoin:miter;stroke-opacity:1"
       xml:space="preserve"><tspan
         style="font-style:normal;font-variant:normal;font-weight:bold;font-stretch:normal;font-size:60px;font-family:'Century Gothic';-inkscape-font-specification:'Century Gothic, Bold';font-variant-ligatures:normal;font-variant-caps:normal;font-variant-numeric:normal;font-feature-settings:normal;text-align:start;writing-mode:lr-tb;text-anchor:start;stroke-width:2.33504391px"
         y="799.47235"
         x="515.73615"
         id="tspan4975"
         sodipodi:role="line">NIRS</tspan></text>
    <text
       id="text4981"
       y="755.72888"
       x="640.18494"
       style="font-style:normal;font-variant:normal;font-weight:normal;font-stretch:normal;font-size:15.00000036px;line-height:125%;font-family:sans-serif;-inkscape-font-specification:'sans-serif, Normal';font-variant-ligatures:normal;font-variant-caps:normal;font-variant-numeric:normal;font-feature-settings:normal;text-align:start;letter-spacing:0px;word-spacing:0px;writing-mode:lr;text-anchor:start;fill:#000000;fill-opacity:1;stroke:none;stroke-width:0.75px;stroke-linecap:butt;stroke-linejoin:miter;stroke-opacity:1;"
       xml:space="preserve"><tspan
         style="font-style:normal;font-variant:normal;font-weight:normal;font-stretch:normal;font-size:15.00000036px;font-family:sans-serif;-inkscape-font-specification:'sans-serif, Normal';font-variant-ligatures:normal;font-variant-caps:normal;font-variant-numeric:normal;font-feature-settings:normal;text-align:start;writing-mode:lr;text-anchor:start;stroke-width:0.75px;"
         y="755.72888"
         x="640.18494"
         id="tspan4979"
         sodipodi:role="line">TM</tspan></text>
  </g>
  <path
     style="fill:#55d400;fill-opacity:1;stroke:#032a0f;stroke-width:0.0527137;stroke-linejoin:round;stroke-miterlimit:4;stroke-dasharray:none;stroke-opacity:1"
     d="m 648.7691,1013.4828 c -2.95408,-2.0745 -4.62787,-4.0044 -5.50395,-6.3459 -0.90715,-2.4246 -0.91003,-5.6281 -0.006,-7.1102 1.26906,-2.08141 2.92662,-1.132 4.99948,2.8636 1.54058,2.9696 2.22118,5.1005 2.94787,9.2298 0.27672,1.5725 0.50334,2.8971 0.5036,2.9435 0.002,0.3377 -0.89622,-0.1451 -2.9406,-1.5808 z"
     id="path827"
     inkscape:connector-curvature="0"
     transform="scale(0.75000002)" />
  <path
     style="fill:#55d400;fill-opacity:1;stroke:#032a0f;stroke-width:0.0527137;stroke-linejoin:round;stroke-miterlimit:4;stroke-dasharray:none;stroke-opacity:1"
     d="m 657.79251,1013.0103 c 0,-0.2466 0.44513,-2.0332 0.98918,-3.9704 1.93635,-6.8947 4.59747,-11.90952 6.80505,-12.82393 0.87914,-0.36415 1.21751,-0.34599 2.18942,0.11748 0.69433,0.3311 1.23289,0.88014 1.35996,1.38641 0.57567,2.29364 -2.64119,7.70354 -7.5001,12.61304 -2.99453,3.0257 -3.84351,3.6171 -3.84351,2.6774 z"
     id="path831"
     inkscape:connector-curvature="0"
     transform="scale(0.75000002)" />
</svg>
